<svg xmlns="http://www.w3.org/2000/svg" version="1.1" xmlns:xlink="http://www.w3.org/1999/xlink" width="512" height="512" x="0" y="0" viewBox="0 0 111 111" style="enable-background:new 0 0 512 512" xml:space="preserve" class=""><g><g fill="#393e46"><path d="M30.044 12.728a4.587 4.587 0 0 0-3.817 2.043L.77 52.956a4.587 4.587 0 0 0 0 5.088L26.227 96.23a4.587 4.587 0 0 0 3.817 2.043h76.37A4.587 4.587 0 0 0 111 93.685v-76.37a4.587 4.587 0 0 0-4.586-4.587zm2.454 9.174h69.329v67.196H32.498L10.1 55.5z" fill="#393e42" opacity="1" data-original="#393e46" class=""></path><path d="M50.627 38.185a4.587 4.587 0 0 0-3.224 1.344 4.587 4.587 0 0 0 0 6.486l9.485 9.485-9.485 9.485a4.587 4.587 0 0 0 0 6.486 4.587 4.587 0 0 0 6.486 0l9.485-9.485 9.486 9.485a4.587 4.587 0 0 0 6.486 0 4.587 4.587 0 0 0 0-6.486L69.86 55.5l9.486-9.485a4.587 4.587 0 0 0 0-6.486 4.587 4.587 0 0 0-3.263-1.344 4.587 4.587 0 0 0-3.223 1.344l-9.486 9.485-9.485-9.485a4.587 4.587 0 0 0-3.262-1.344z" fill="#393e42" opacity="1" data-original="#393e46" class=""></path></g></g></svg>