<svg xmlns="http://www.w3.org/2000/svg" version="1.1" xmlns:xlink="http://www.w3.org/1999/xlink" width="512" height="512" x="0" y="0" viewBox="0 0 32 32" style="enable-background:new 0 0 512 512" xml:space="preserve" class=""><g><path d="M24.21 13H24V9A8 8 0 0 0 8 9v4h-.21A2.79 2.79 0 0 0 5 15.79v12.42A2.79 2.79 0 0 0 7.79 31h16.42A2.79 2.79 0 0 0 27 28.21V15.79A2.79 2.79 0 0 0 24.21 13ZM10 9a6 6 0 0 1 12 0v4H10Zm15 19.21a.79.79 0 0 1-.79.79H7.79a.79.79 0 0 1-.79-.79V15.79a.79.79 0 0 1 .79-.79h16.42a.79.79 0 0 1 .79.79Z" fill="#f8f7f7" opacity="1" data-original="#000000" class=""></path></g></svg>